<svg width="47" height="47" viewBox="0 0 47 47" fill="none" xmlns="http://www.w3.org/2000/svg">
<g clip-path="url(#clip0_667_6174)">
<path d="M44.6116 38.2546C38.3779 36.7839 31.6997 37.8461 25.3915 38.2294C17.4678 38.7105 9.3501 37.8713 1.53848 39.5478C1.4472 39.5674 1.40022 39.625 1.37383 39.6926C1.22904 39.6783 1.08182 39.7287 1.0162 39.8732C0.572861 40.8514 0.620319 40.7565 0.492474 41.8941C0.465113 42.1379 0.692958 42.4238 0.929762 42.4681C8.94913 43.9742 17.9147 43.0246 26.0039 42.7134C30.3949 42.5444 34.8164 42.3321 39.1748 41.742C40.4307 41.572 44.0951 41.487 44.5375 39.7815C45.2707 39.6033 45.5014 38.4645 44.6116 38.2546ZM35.9092 40.6229C31.5111 41.0819 27.0855 41.2972 22.6685 41.4732C18.1956 41.6514 13.7174 41.7183 9.24114 41.6841C7.63194 41.6718 6.02201 41.6388 4.41378 41.5788C3.81378 41.5563 3.21475 41.5202 2.61596 41.4778C1.33848 41.387 1.57649 41.3531 1.73267 40.0761C9.23509 40.2333 16.8077 39.9684 24.3092 39.7628C30.5574 39.5916 36.6835 38.8231 42.898 39.6081C41.6266 40.243 36.7869 40.5316 35.9092 40.6229Z" fill="#492470"/>
<path d="M24.0922 14.2592C23.5469 14.2645 22.9997 14.2979 22.4522 14.3401C22.0341 12.6454 20.3438 11.2185 18.5808 11.536C16.7031 11.874 16.2772 13.8287 16.7108 15.4219C7.77815 18.1413 0.289291 25.473 1.58735 35.4406C1.47379 35.697 1.49074 36.0205 1.64716 36.2699C1.54813 36.4328 1.61593 36.681 1.87089 36.7042C2.02004 36.7176 2.16895 36.7248 2.3181 36.7362C3.02585 37.0168 3.829 36.9759 4.61544 36.8442C10.567 36.9401 16.4818 35.7582 22.4179 35.3544C29.1259 34.898 36.2748 34.957 42.9142 36.0285C43.3503 36.0989 43.6578 35.795 43.7438 35.4607C43.9559 35.3231 44.1065 35.104 44.189 34.8587C44.2719 34.8098 44.3467 34.7423 44.3953 34.6302C49.4568 22.8825 33.8782 14.165 24.0922 14.2592ZM19.2491 13.1241C19.2975 13.0931 19.3401 13.0858 19.3864 13.0638C20.0864 13.049 20.4646 13.7766 20.7394 14.5258C20.0624 14.6222 19.3871 14.7391 18.7169 14.888C18.4527 14.2498 18.6489 13.5079 19.2491 13.1241ZM43.4854 33.3665C43.4779 33.3636 43.4719 33.3597 43.4639 33.3573C35.9222 30.9505 28.0045 31.8369 20.2794 32.7512C16.6723 33.1781 13.0387 33.2757 9.4353 33.7539C7.27428 34.0408 4.84256 35.1006 2.64619 35.0502C3.6181 23.8306 11.8505 17.0578 23.0685 16.1815C32.174 15.4701 45.6355 22.8188 43.4854 33.3665Z" fill="#492470"/>
<path d="M14.0747 12.4011C13.5287 11.3316 12.8505 10.3146 12.2387 9.28074C11.7498 8.45484 11.2813 7.22287 10.5094 6.62384C9.80453 6.07687 8.46578 6.54103 8.83455 7.59866C9.16239 8.53837 10.0161 9.35774 10.6268 10.1311C11.422 11.1381 12.2205 12.2476 13.2316 13.0512C13.7007 13.4238 14.3651 12.9696 14.0747 12.4011Z" fill="#492470"/>
<path d="M9.53512 14.1384C8.81188 13.5527 8.08936 13.003 7.32519 12.4708C6.60364 11.9684 5.89735 11.3403 5.12689 10.9214C4.19081 10.4125 3.14311 11.6667 3.96466 12.4277C5.28815 13.6534 7.31745 14.5345 9.03972 14.9892C9.50025 15.1108 9.94989 14.474 9.53512 14.1384Z" fill="#492470"/>
<path d="M4.84457 17.773C4.11575 17.573 3.38452 17.4699 2.64529 17.3166C2.36612 17.2587 2.07144 17.1851 1.81237 17.0638C1.77871 17.0481 1.00631 16.7447 1.25038 16.9045C0.590331 16.4725 -0.121049 17.1791 0.0174498 17.8524C0.412607 19.7745 3.78743 19.2156 4.93827 18.4897C5.22108 18.311 5.18065 17.865 4.84457 17.773Z" fill="#492470"/>
<path d="M32.2293 3.71253C31.2117 3.8595 30.5758 5.00357 30.0378 5.78226C29.316 6.8273 28.7395 7.96241 28.0085 9.00236C27.6456 9.51907 28.4509 10.12 28.8729 9.66919C29.6642 8.82367 30.371 7.90454 31.0785 6.98928C31.6896 6.19848 32.7313 5.46919 33.0078 4.49098C33.1516 3.98129 32.6858 3.64643 32.2293 3.71253Z" fill="#492470"/>
<path d="M37.1081 6.11545C35.1771 7.05468 34.5507 9.82974 33.171 11.359C32.5916 12.0014 33.3146 12.9227 34.0797 12.5368C35.0231 12.061 35.6974 11.2351 36.3059 10.391C36.9768 9.46 37.6463 8.66654 38.4398 7.8416C39.3374 6.90867 38.2107 5.57937 37.1081 6.11545Z" fill="#492470"/>
<path d="M45.9639 10.3012C45.2556 10.3239 44.6474 10.6791 43.9912 10.9232C43.222 11.2091 42.453 11.484 41.6978 11.806C40.4304 12.3464 39.3062 13.3152 39.2268 14.7593C39.1849 15.5203 40.2307 15.7239 40.5985 15.1307C41.2157 14.1355 42.3287 13.7987 43.3917 13.4685C44.4401 13.1428 45.966 12.982 46.7179 12.1213C47.297 11.4581 46.9522 10.2694 45.9639 10.3012Z" fill="#492470"/>
<path fill-rule="evenodd" clip-rule="evenodd" d="M19.7332 30.7389C17.3101 28.8819 14 25.8141 14 22.9136C14 18.068 18.5295 16.2589 22.2353 20.0021C25.941 16.2589 30.4706 18.068 30.4706 22.9136C30.4706 25.8142 27.1605 28.8819 24.7374 30.7389C23.6405 31.5797 23.092 32 22.2353 32C21.3786 32 20.8301 31.5797 19.7332 30.7389ZM25.9412 20.6765C26.2823 20.6765 26.5588 20.953 26.5588 21.2941V22.3235H27.5882C27.9293 22.3235 28.2059 22.6001 28.2059 22.9412C28.2059 23.2823 27.9293 23.5588 27.5882 23.5588H26.5588V24.5882C26.5588 24.9293 26.2823 25.2059 25.9412 25.2059C25.6001 25.2059 25.3235 24.9293 25.3235 24.5882V23.5588H24.2941C23.953 23.5588 23.6765 23.2823 23.6765 22.9412C23.6765 22.6001 23.953 22.3235 24.2941 22.3235H25.3235V21.2941C25.3235 20.953 25.6001 20.6765 25.9412 20.6765Z" fill="#492470"/>
</g>
<defs>
<clipPath id="clip0_667_6174">
<rect width="47" height="47" fill="white"/>
</clipPath>
</defs>
</svg>
